<?xml version="1.0" encoding="UTF-8"?>
<svg id="Layer_1" data-name="Layer 1" xmlns="http://www.w3.org/2000/svg" viewBox="0 0 258.82 242.26">
  <defs>
    <style>
      .cls-1 {
        fill: #fbfbfc;
      }

      .cls-2 {
        fill: none;
        stroke: #fff;
        stroke-miterlimit: 10;
        stroke-width: 7px;
      }
    </style>
  </defs>
  <g>
    <path class="cls-1" d="M196.84,104.36c-20.54-24.74-48.24-36.45-69.31-28.02-7.21-10.94-16.09-19.63-25.42-25.46,3.57-3.63,7.49-7.11,11.73-10.38,34.18-26.41,76.18-29.33,93.8-6.51,13.81,17.88,8.57,46.23-10.79,70.38Z"/>
    <path class="cls-1" d="M127.53,76.34c-1.4.55-2.78,1.21-4.12,1.95-8.92,4.93-15.19,13.26-18.71,23.65-9.21,2.23-18.72,6.17-27.84,11.85-3.63-19.17,5.83-43.23,25.24-62.91,9.33,5.84,18.21,14.52,25.42,25.46Z"/>
    <path class="cls-1" d="M76.87,113.79c-.71.44-1.42.89-2.13,1.35-6.46,4.23-12.2,9.02-17.14,14.13-.89-1.38-1.76-2.79-2.59-4.24-18.06-31.29-15.78-66.43,5.11-78.49,12-6.93,27.53-4.73,41.99,4.34-19.41,19.68-28.87,43.75-25.24,62.91Z"/>
    <path class="cls-1" d="M103.37,142.68c-7.91-2.42-14.64-6.76-19.51-13.06-3.6-4.65-5.9-10.02-7-15.83,9.12-5.68,18.62-9.62,27.84-11.85-3.94,11.63-4.44,25.84-1.33,40.74Z"/>
    <path class="cls-1" d="M110.14,163.92c-17.84.19-38.48-12.9-52.54-34.65,4.93-5.11,10.68-9.9,17.14-14.13.71-.46,1.42-.92,2.13-1.35,1.1,5.81,3.4,11.18,7,15.83,4.87,6.3,11.6,10.64,19.51,13.06,1.46,6.99,3.71,14.14,6.77,21.24Z"/>
    <path class="cls-1" d="M126.12,190.78c-.41.28-.83.56-1.25.83-31.64,20.74-68.5,20.43-82.35-.68-11.02-16.8-4.13-41.72,15.08-61.65,14.06,21.74,34.7,34.84,52.54,34.65,1.54,3.59,3.29,7.15,5.25,10.69,3.23,5.83,6.84,11.24,10.73,16.16Z"/>
    <path class="cls-1" d="M139.73,102.64c-9.92-3.56-22.2-3.8-35.02-.7,3.52-10.39,9.8-18.72,18.71-23.65,1.34-.74,2.72-1.39,4.12-1.95,1.08,1.63,2.11,3.3,3.11,5.03,4.04,7,7.07,14.19,9.09,21.28Z"/>
    <path class="cls-1" d="M196.84,104.36c-5.35,6.68-11.77,13.03-19.18,18.75-4.98,3.85-10.13,7.2-15.34,10.03-.17-6.28-1.87-12.18-5.24-17.32-4.05-6.18-10.07-10.58-17.36-13.18-2.02-7.08-5.05-14.28-9.09-21.28-1-1.73-2.03-3.4-3.11-5.03,21.08-8.43,48.78,3.28,69.31,28.02Z"/>
    <path class="cls-1" d="M139.74,142.26c4.09-11.01,4.15-25.08-.01-39.62,7.29,2.61,13.31,7,17.36,13.18,3.37,5.14,5.07,11.04,5.24,17.32-7.49,4.09-15.12,7.14-22.59,9.11Z"/>
    <path class="cls-1" d="M139.74,142.26c-13.15,3.48-25.81,3.66-36.37.42-3.11-14.9-2.61-29.11,1.33-40.74,12.83-3.1,25.1-2.86,35.02.7,4.16,14.54,4.1,28.61.01,39.62Z"/>
    <path class="cls-1" d="M139.74,142.26c-2.83,7.61-7.58,13.77-14.2,17.59-4.68,2.7-9.91,4.02-15.39,4.07-3.06-7.1-5.31-14.25-6.77-21.24,10.55,3.24,23.21,3.06,36.37-.42Z"/>
    <path class="cls-1" d="M126.12,190.78c-3.89-4.93-7.5-10.33-10.73-16.16-1.96-3.54-3.71-7.11-5.25-10.69,5.49-.05,10.71-1.37,15.39-4.07,6.62-3.82,11.38-9.98,14.2-17.59,7.47-1.98,15.1-5.02,22.59-9.11.55,19.19-13.04,41.96-36.21,57.63Z"/>
    <path class="cls-1" d="M201.27,218.99c-22.03,12.2-53.12-.32-75.15-28.21,23.17-15.67,36.76-38.44,36.21-57.63,5.21-2.83,10.36-6.19,15.34-10.03,7.4-5.72,13.83-12.08,19.18-18.75,4.55,5.49,8.76,11.61,12.45,18.29,21.5,38.86,17.91,81.98-8.03,96.33Z"/>
  </g>
  <g>
    <path class="cls-2" d="M196.84,104.36c-20.54-24.74-48.24-36.45-69.31-28.02-7.21-10.94-16.09-19.63-25.42-25.46,3.57-3.63,7.49-7.11,11.73-10.38,34.18-26.41,76.18-29.33,93.8-6.51,13.81,17.88,8.57,46.23-10.79,70.38Z"/>
    <path class="cls-2" d="M127.53,76.34c-1.4.55-2.78,1.21-4.12,1.95-8.92,4.93-15.19,13.26-18.71,23.65-9.21,2.23-18.72,6.17-27.84,11.85-3.63-19.17,5.83-43.23,25.24-62.91,9.33,5.84,18.21,14.52,25.42,25.46Z"/>
    <path class="cls-2" d="M76.87,113.79c-.71.44-1.42.89-2.13,1.35-6.46,4.23-12.2,9.02-17.14,14.13-.89-1.38-1.76-2.79-2.59-4.24-18.06-31.29-15.78-66.43,5.11-78.49,12-6.93,27.53-4.73,41.99,4.34-19.41,19.68-28.87,43.75-25.24,62.91Z"/>
    <path class="cls-2" d="M103.37,142.68c-7.91-2.42-14.64-6.76-19.51-13.06-3.6-4.65-5.9-10.02-7-15.83,9.12-5.68,18.62-9.62,27.84-11.85-3.94,11.63-4.44,25.84-1.33,40.74Z"/>
    <path class="cls-2" d="M110.14,163.92c-17.84.19-38.48-12.9-52.54-34.65,4.93-5.11,10.68-9.9,17.14-14.13.71-.46,1.42-.92,2.13-1.35,1.1,5.81,3.4,11.18,7,15.83,4.87,6.3,11.6,10.64,19.51,13.06,1.46,6.99,3.71,14.14,6.77,21.24Z"/>
    <path class="cls-2" d="M126.12,190.78c-.41.28-.83.56-1.25.83-31.64,20.74-68.5,20.43-82.35-.68-11.02-16.8-4.13-41.72,15.08-61.65,14.06,21.74,34.7,34.84,52.54,34.65,1.54,3.59,3.29,7.15,5.25,10.69,3.23,5.83,6.84,11.24,10.73,16.16Z"/>
    <path class="cls-2" d="M139.73,102.64c-9.92-3.56-22.2-3.8-35.02-.7,3.52-10.39,9.8-18.72,18.71-23.65,1.34-.74,2.72-1.39,4.12-1.95,1.08,1.63,2.11,3.3,3.11,5.03,4.04,7,7.07,14.19,9.09,21.28Z"/>
    <path class="cls-2" d="M196.84,104.36c-5.35,6.68-11.77,13.03-19.18,18.75-4.98,3.85-10.13,7.2-15.34,10.03-.17-6.28-1.87-12.18-5.24-17.32-4.05-6.18-10.07-10.58-17.36-13.18-2.02-7.08-5.05-14.28-9.09-21.28-1-1.73-2.03-3.4-3.11-5.03,21.08-8.43,48.78,3.28,69.31,28.02Z"/>
    <path class="cls-2" d="M139.74,142.26c4.09-11.01,4.15-25.08-.01-39.62,7.29,2.61,13.31,7,17.36,13.18,3.37,5.14,5.07,11.04,5.24,17.32-7.49,4.09-15.12,7.14-22.59,9.11Z"/>
    <path class="cls-2" d="M139.74,142.26c-13.15,3.48-25.81,3.66-36.37.42-3.11-14.9-2.61-29.11,1.33-40.74,12.83-3.1,25.1-2.86,35.02.7,4.16,14.54,4.1,28.61.01,39.62Z"/>
    <path class="cls-2" d="M139.74,142.26c-2.83,7.61-7.58,13.77-14.2,17.59-4.68,2.7-9.91,4.02-15.39,4.07-3.06-7.1-5.31-14.25-6.77-21.24,10.55,3.24,23.21,3.06,36.37-.42Z"/>
    <path class="cls-2" d="M126.12,190.78c-3.89-4.93-7.5-10.33-10.73-16.16-1.96-3.54-3.71-7.11-5.25-10.69,5.49-.05,10.71-1.37,15.39-4.07,6.62-3.82,11.38-9.98,14.2-17.59,7.47-1.98,15.1-5.02,22.59-9.11.55,19.19-13.04,41.96-36.21,57.63Z"/>
    <path class="cls-2" d="M201.27,218.99c-22.03,12.2-53.12-.32-75.15-28.21,23.17-15.67,36.76-38.44,36.21-57.63,5.21-2.83,10.36-6.19,15.34-10.03,7.4-5.72,13.83-12.08,19.18-18.75,4.55,5.49,8.76,11.61,12.45,18.29,21.5,38.86,17.91,81.98-8.03,96.33Z"/>
  </g>
</svg>